<svg width="97" height="23" viewBox="0 0 97 23" fill="none" xmlns="http://www.w3.org/2000/svg">
<path d="M0.0499992 11.598C0.0499992 14.986 1.03 17.6366 2.99 19.55C4.95 21.454 7.39067 22.406 10.312 22.406C11.964 22.406 13.4713 22.0746 14.834 21.412C16.206 20.7493 17.326 19.8113 18.194 18.598L17.088 17.66C16.5 18.5466 15.66 19.284 14.568 19.872C13.476 20.46 12.1647 20.754 10.634 20.754C8.31 20.754 6.41533 19.9326 4.95 18.29C3.48467 16.638 2.74267 14.2626 2.724 11.164C2.70533 8.2053 3.38667 5.9793 4.768 4.48597C6.14933 2.9833 8.02533 2.23197 10.396 2.23197C11.376 2.23197 12.3 2.39064 13.168 2.70797C14.036 3.01597 14.7547 3.46397 15.324 4.05197L16.724 2.58197C15.9213 1.99397 14.9553 1.53664 13.826 1.20997C12.706 0.883305 11.544 0.719971 10.34 0.719971C7.344 0.719971 4.88 1.7513 2.948 3.81397C1.016 5.86731 0.0499992 8.46197 0.0499992 11.598ZM14.68 3.47797L15.59 7.43997H16.892V1.18197H15.8L14.68 3.47797Z" fill="black"/>
<path d="M19.3273 11.668C19.3273 14.8786 20.2747 17.4733 22.1693 19.452C24.064 21.4306 26.4767 22.42 29.4073 22.42C32.422 22.42 34.8393 21.3746 36.6593 19.284C38.4793 17.184 39.3893 14.58 39.3893 11.472C39.3893 8.20531 38.47 5.59664 36.6313 3.64597C34.7927 1.6953 32.3707 0.719971 29.3653 0.719971C26.36 0.719971 23.9333 1.75597 22.0853 3.82797C20.2467 5.89997 19.3273 8.5133 19.3273 11.668ZM22.0013 11.178C22.0013 8.34064 22.6313 6.15664 23.8913 4.62597C25.1607 3.08597 26.99 2.31597 29.3793 2.31597C31.61 2.31597 33.388 3.1653 34.7133 4.86397C36.048 6.56264 36.7153 8.78864 36.7153 11.542C36.7153 14.6033 36.09 16.932 34.8393 18.528C33.598 20.1146 31.778 20.908 29.3793 20.908C27.186 20.908 25.408 20.0213 24.0453 18.248C22.6827 16.4653 22.0013 14.1086 22.0013 11.178Z" fill="black"/>
<path d="M41.5038 22H49.6238V20.852L46.7678 20.348L46.7398 11.458L46.7958 2.62397L47.1878 2.35797H49.5958C50.7998 2.35797 51.6724 2.66597 52.2138 3.28197C52.7551 3.89797 53.0258 4.78931 53.0258 5.95597C53.0258 7.27197 52.7131 8.31731 52.0878 9.09197C51.4718 9.86664 50.4731 10.254 49.0918 10.254H47.1038L45.5778 10.24V11.332C46.0818 11.3693 46.8098 11.4113 47.7618 11.458C48.7231 11.4953 49.5118 11.514 50.1278 11.514C51.6584 11.514 52.9791 10.9913 54.0898 9.94597C55.2098 8.89131 55.7698 7.51931 55.7698 5.82997C55.7698 4.28997 55.3078 3.09997 54.3838 2.25997C53.4691 1.41997 52.0504 0.99997 50.1278 0.99997H41.5038V2.30197L44.2478 2.77797L44.2758 11.444L44.2478 20.348L41.5038 20.852V22ZM48.9378 11.332L55.1118 21.104L56.0358 22H59.5638V20.852C59.0504 20.8426 58.4718 20.6373 57.8278 20.236C57.1931 19.8253 56.4605 18.99 55.6298 17.73L50.9678 10.268L48.9378 11.332Z" fill="black"/>
<path d="M58.7909 22H65.7209V20.852L63.1029 20.432L64.8949 14.804L68.7309 4.19197L72.7769 14.86L74.6109 20.418L72.2309 20.852V22H79.7069V20.852L77.3409 20.362L74.8209 13.74L70.0889 0.887972H68.3809L63.5929 14.412L61.3389 20.362L58.7909 20.852V22ZM63.9709 15.448H74.1209L73.7569 14.048L69.2069 14.202L64.4609 14.062L63.9709 15.448Z" fill="black"/>
<path d="M80.3866 22H95.5486L96.2486 16.26H94.8626L93.3646 20.754H86.3786L85.6506 20.39L85.6226 11.444L85.6506 2.77797L88.8566 2.30197V0.99997H80.3866V2.30197L83.1306 2.77797L83.1586 11.444L83.1306 20.404L80.3866 20.852V22Z" fill="black"/>
</svg>
